<svg xmlns="http://www.w3.org/2000/svg" xmlns:xlink="http://www.w3.org/1999/xlink" width="14.001" height="16" viewBox="0 0 14.001 16">
  <defs>
    <linearGradient id="linear-gradient" x1="0.5" x2="0.5" y2="1" gradientUnits="objectBoundingBox">
      <stop offset="0" stop-color="#fff"/>
      <stop offset="1" stop-color="#cbaaff"/>
    </linearGradient>
  </defs>
  <g id="Bag" transform="translate(0.001 0)">
    <path id="Bag_Icon" data-name="Bag Icon" d="M-3806.212,505a3.843,3.843,0,0,1-3.054-1.041,4.284,4.284,0,0,1-.65-3.506l.6-4.956c.265-1.563,1.152-2.5,2.372-2.5h-.05a.522.522,0,0,1,0-.181,3.993,3.993,0,0,1,4-3.82,3.994,3.994,0,0,1,4,3.82h-.021a.406.406,0,0,1-.035.181h.011a2.044,2.044,0,0,1,1.422.584,3.546,3.546,0,0,1,.957,1.911l.6,4.956a4.164,4.164,0,0,1-.734,3.418,3.792,3.792,0,0,1-2.964,1.13Zm4.771-8.609a.71.71,0,0,0,.688.729.71.71,0,0,0,.687-.729.709.709,0,0,0-.687-.728A.709.709,0,0,0-3801.442,496.391Zm-4.5,0a.71.71,0,0,0,.688.729.71.71,0,0,0,.688-.729.709.709,0,0,0-.687-.728A.709.709,0,0,0-3805.945,496.391Zm5.74-3.391a.514.514,0,0,1-.034-.181,2.783,2.783,0,0,0-2.787-2.778,2.783,2.783,0,0,0-2.787,2.778.522.522,0,0,1,0,.181Z" transform="translate(3809.999 -489)" fill="url(#linear-gradient)"/>
  </g>
</svg>
