<svg xmlns="http://www.w3.org/2000/svg" xmlns:xlink="http://www.w3.org/1999/xlink" width="24" height="24" viewBox="0 0 24 24">
  <defs>
    <linearGradient id="linear-gradient" x1="0.5" x2="0.5" y2="1" gradientUnits="objectBoundingBox">
      <stop offset="0" stop-color="#32303d"/>
      <stop offset="1" stop-color="#0c0a19"/>
    </linearGradient>
    <linearGradient id="linear-gradient-2" x1="0.5" x2="0.5" y2="1" gradientUnits="objectBoundingBox">
      <stop offset="0" stop-color="#fff"/>
      <stop offset="1" stop-color="#cbaaff"/>
    </linearGradient>
    <linearGradient id="linear-gradient-4" x1="0.5" x2="0.5" y2="1" gradientUnits="objectBoundingBox">
      <stop offset="0" stop-color="#db2a7d"/>
      <stop offset="1" stop-color="#d04adf"/>
    </linearGradient>
  </defs>
  <g id="Group_4191" data-name="Group 4191" transform="translate(-964 857)">
    <rect id="bg" width="24" height="24" transform="translate(964 -857)" opacity="0" fill="url(#linear-gradient)"/>
    <g id="Bell_Icon" data-name="Bell Icon" transform="translate(965.306 -855.483)">
      <path id="Bell_Icon-2" data-name="Bell Icon" d="M11.566,21.985a2.566,2.566,0,0,0,2.566-2.566q0-.036,0-.072a.383.383,0,0,0-.392-.36L9.4,18.938a.383.383,0,0,0-.4.351q0,.065,0,.13A2.566,2.566,0,0,0,11.566,21.985Z" transform="translate(-0.872 -2.52)" opacity="0.67" fill="url(#linear-gradient-2)"/>
      <path id="Bell_Icon-3" data-name="Bell Icon" d="M4.706,7.916c0-3.307,2.681-6.416,5.988-6.416s5.988,3.109,5.988,6.416v2.105a3.885,3.885,0,0,0,1.3,2.9,1.3,1.3,0,0,1-.86,2.263H4.262a1.3,1.3,0,0,1-.86-2.263,3.885,3.885,0,0,0,1.3-2.9Z" transform="translate(0 0)" fill="url(#linear-gradient-2)"/>
      <circle id="Oval" cx="3" cy="3" r="3" transform="translate(12.694 1.483)" fill="url(#linear-gradient-4)"/>
    </g>
  </g>
</svg>
